<svg width="68" height="68" xmlns="http://www.w3.org/2000/svg" xmlns:xlink="http://www.w3.org/1999/xlink" xml:space="preserve" overflow="hidden"><g transform="translate(-332 -414)"><g><g><g><g><path d="M366.5 419.188C350.313 419.188 337.188 432.64 337.188 449.246 337.188 462.528 345.589 473.782 357.235 477.76 358.701 478.035 359.237 477.106 359.237 476.308 359.237 475.588 359.211 473.704 359.198 471.191 351.046 473.01 349.318 467.161 349.318 467.161 347.983 463.693 346.06 462.764 346.06 462.764 343.403 460.892 346.256 460.932 346.256 460.932 349.2 461.141 350.745 464.033 350.745 464.033 353.362 468.626 357.602 467.305 359.277 466.532 359.538 464.596 360.297 463.261 361.135 462.515 354.631 461.756 347.787 459.178 347.787 447.663 347.787 444.378 348.926 441.695 350.797 439.602 350.496 438.843 349.488 435.78 351.085 431.645 351.085 431.645 353.545 430.834 359.146 434.721 361.488 434.053 363.987 433.726 366.487 433.713 368.973 433.726 371.486 434.053 373.828 434.721 379.429 430.834 381.876 431.645 381.876 431.645 383.472 435.78 382.465 438.843 382.164 439.602 384.035 441.708 385.174 444.391 385.174 447.663 385.174 459.204 378.317 461.743 371.787 462.489 372.834 463.418 373.776 465.25 373.776 468.05 373.776 472.068 373.737 475.313 373.737 476.295 373.737 477.093 374.26 478.035 375.752 477.734 387.424 473.769 395.812 462.515 395.812 449.246 395.812 432.64 382.687 419.188 366.5 419.188Z" stroke="#793B74" stroke-width="0.130878" stroke-linecap="butt" stroke-linejoin="miter" stroke-miterlimit="4" stroke-opacity="1" fill="#793B74" fill-rule="evenodd" fill-opacity="1"/></g></g></g></g></g></svg>