<?xml version="1.0" encoding="UTF-8"?>
<svg id="Ebene_2" data-name="Ebene 2" xmlns="http://www.w3.org/2000/svg" viewBox="0 0 432.28 155.91">
  <defs>
    <style>
      .cls-1 {
        fill: #8dba13;
      }
    </style>
  </defs>
  <g id="Logo">
    <g>
      <path class="cls-1" d="M432.28,82.44v-8.97c0-1.44-1.16-2.6-2.6-2.6h-51.49c-1.44,0-2.6,1.16-2.6,2.6v30.23c0,1.44,1.16,2.6,2.6,2.6h37.32c1.44,0,2.6,1.16,2.6,2.6v1.89c0,1.44-1.16,2.6-2.6,2.6h-37.32c-1.44,0-2.6,1.16-2.6,2.6v8.74c0,1.57,1.27,2.83,2.83,2.83h51.26c1.44,0,2.6-1.16,2.6-2.6v-30.23c0-1.44-1.16-2.6-2.6-2.6h-37.32c-1.44,0-2.6-1.16-2.6-2.6v-1.89c0-1.44,1.16-2.6,2.6-2.6h37.32c1.44,0,2.6-1.16,2.6-2.6Z"/>
      <path class="cls-1" d="M248.03,73.47v8.97c0,1.44,1.16,2.6,2.6,2.6h37.32c1.44,0,2.6,1.16,2.6,2.6v1.89c0,1.44-1.16,2.6-2.6,2.6h-37.32c-1.44,0-2.6,1.16-2.6,2.6v30.23c0,1.44,1.16,2.6,2.6,2.6h51.49c1.44,0,2.6-1.16,2.6-2.6v-51.49c0-1.44-1.16-2.6-2.6-2.6h-51.49c-1.44,0-2.6,1.16-2.6,2.6ZM287.95,113.39h-23.15c-1.44,0-2.6-1.16-2.6-2.6v-1.89c0-1.44,1.16-2.6,2.6-2.6h23.15c1.44,0,2.6,1.16,2.6,2.6v1.89c0,1.44-1.16,2.6-2.6,2.6Z"/>
      <path class="cls-1" d="M351.73,85.04h-3.41c-.69,0-1.35.27-1.84.76l-4.49,4.49c-1.02,1.02-2.66,1.02-3.68,0l-4.49-4.49c-.49-.49-1.15-.76-1.84-.76h-3.41c-1.44,0-2.6-1.16-2.6-2.6v-8.97c0-1.44-1.16-2.6-2.6-2.6h-8.97c-1.44,0-2.6,1.16-2.6,2.6v10.71c0,.56.18,1.11.52,1.56l9.33,12.44c.49.65,1.26,1.04,2.08,1.04h6.73c1.44,0,2.6,1.16,2.6,2.6v8.97c0,1.44-1.16,2.6-2.6,2.6h0c-1.44,0-2.6,1.16-2.6,2.6v8.97c0,1.44,1.16,2.6,2.6,2.6h19.6c1.44,0,2.6-1.16,2.6-2.6v-8.97c0-1.44-1.16-2.6-2.6-2.6h-.23c-1.44,0-2.6-1.16-2.6-2.6v-8.97c0-1.44,1.16-2.6,2.6-2.6h6.73c.82,0,1.59-.39,2.08-1.04l9.33-12.44c.34-.45.52-1,.52-1.56v-10.71c0-1.44-1.16-2.6-2.6-2.6h-8.97c-1.44,0-2.6,1.16-2.6,2.6v8.97c0,1.44-1.16,2.6-2.6,2.6Z"/>
      <path class="cls-1" d="M209.99,70.86h-23.14c-1.44,0-2.6,1.16-2.6,2.6v30.24c0,1.44,1.16,2.6,2.6,2.6h8.97c1.44,0,2.6-1.16,2.6-2.6v-16.06c0-1.44,1.16-2.6,2.6-2.6h6.58c10.59,0,19.17,8.58,19.17,19.17v6.57c0,1.44-1.16,2.6-2.6,2.6h-16.06c-1.44,0-2.6,1.16-2.6,2.6v8.98c0,1.44,1.16,2.6,2.6,2.6h30.23c1.44,0,2.6-1.16,2.6-2.6v-23.15c0-17.09-13.86-30.95-30.95-30.95Z"/>
      <path class="cls-1" d="M262.2,0h-11.57c-1.44,0-2.6,1.16-2.6,2.6v51.49c0,1.44,1.16,2.6,2.6,2.6h51.49c1.44,0,2.6-1.16,2.6-2.6v-8.97c0-1.44-1.16-2.6-2.6-2.6h-37.32c-1.44,0-2.6-1.16-2.6-2.6v-1.89c0-1.44,1.16-2.6,2.6-2.6h37.32c1.44,0,2.6-1.16,2.6-2.6V2.6C304.72,1.16,303.56,0,302.12,0h-39.92ZM287.95,21.26h-23.15c-1.44,0-2.6-1.16-2.6-2.6v-1.89c0-1.44,1.16-2.6,2.6-2.6h23.15c1.44,0,2.6,1.16,2.6,2.6v1.89c0,1.44-1.16,2.6-2.6,2.6Z"/>
      <rect class="cls-1" x="184.25" y="0" width="14.17" height="14.17" rx="2.6" ry="2.6"/>
      <path class="cls-1" d="M208.11,14.17h16.06c1.44,0,2.6,1.16,2.6,2.6v6.58c0,10.59-8.58,19.17-19.17,19.17h-6.58c-1.44,0-2.6-1.16-2.6-2.6v-16.06c0-1.44-1.16-2.6-2.6-2.6h-8.97c-1.44,0-2.6,1.16-2.6,2.6v30.23c0,1.44,1.16,2.6,2.6,2.6h23.15c17.09,0,30.94-13.85,30.94-30.94V2.6c0-1.44-1.16-2.6-2.6-2.6h-30.23c-1.44,0-2.6,1.16-2.6,2.6v8.97c0,1.44,1.16,2.6,2.6,2.6Z"/>
      <path class="cls-1" d="M354.33,23.35c0,10.59-8.58,19.17-19.17,19.17h-6.58c-1.44,0-2.6-1.16-2.6-2.6V2.6C325.98,1.16,324.82,0,323.38,0h-8.97c-1.44,0-2.6,1.16-2.6,2.6v50.32c0,2.08,1.69,3.77,3.77,3.77h10.41s0,0,0,0h11.57c17.09,0,30.95-13.86,30.95-30.95V2.6c0-1.44-1.16-2.6-2.6-2.6h-8.97c-1.44,0-2.6,1.16-2.6,2.6v20.75Z"/>
      <rect class="cls-1" x="184.25" y="113.38" width="14.17" height="14.18" rx="2.6" ry="2.6"/>
    </g>
    <g>
      <path class="cls-1" d="M23.43,0H5.67C2.54,0,0,2.54,0,5.67v17.76c0,2.72,2.2,4.92,4.92,4.92h18.51c2.72,0,4.92-2.2,4.92-4.92V4.92C28.35,2.2,26.15,0,23.43,0Z"/>
      <path class="cls-1" d="M42.52,4.92v18.51c0,2.72,2.2,4.92,4.92,4.92h32.69c2.72,0,4.92,2.2,4.92,4.92v18.51c0,18.37-14.89,33.26-33.26,33.26h-18.51c-2.72,0-4.92-2.2-4.92-4.92v-32.69c0-2.72-2.2-4.92-4.92-4.92H4.92c-2.72,0-4.92,2.2-4.92,4.92v102.8c0,3.13,2.54,5.67,5.67,5.67h46.11c57.51,0,104.13-46.62,104.13-104.13V4.92C155.91,2.2,153.7,0,150.99,0H47.44C44.72,0,42.52,2.2,42.52,4.92ZM127.56,51.78c0,41.85-33.93,75.78-75.78,75.78h-18.51c-2.72,0-4.92-2.2-4.92-4.92v-4.34c0-2.72,2.2-4.92,4.92-4.92h18.51c34.03,0,61.61-27.58,61.61-61.61v-18.52c0-2.72,2.2-4.92,4.92-4.92h4.34c2.72,0,4.92,2.2,4.92,4.92v18.52Z"/>
    </g>
    <g>
      <path class="cls-1" d="M194.86,155.73h-2.75v-8l-2.48,4.63h-.22l-2.49-4.63v8h-2.67v-13.81h2.49l2.8,5.18,2.82-5.18h2.49v13.81Z"/>
      <path class="cls-1" d="M207.18,155.73h-2.82l-.74-2.8h-3.96l-.76,2.8h-2.82l4.03-13.81h3.04l4.02,13.81ZM202.99,150.53l-1.34-5.04-1.35,5.04h2.68Z"/>
      <path class="cls-1" d="M216.8,154.75c-.2.11-.37.21-.51.28-.14.07-.28.14-.4.2-.13.06-.32.14-.56.23-.42.15-.83.26-1.25.33-.41.08-.85.11-1.31.11-.93,0-1.78-.26-2.57-.77-.79-.51-1.41-1.31-1.88-2.38-.47-1.08-.71-2.4-.71-3.96,0-1.01.12-2,.37-2.97.24-.97.62-1.75,1.11-2.34.41-.49.83-.86,1.25-1.11.42-.26.84-.43,1.24-.51.4-.09.85-.13,1.34-.13.8,0,1.47.09,1.99.27.52.18,1.09.42,1.72.72v3.27c-.41-.37-.85-.67-1.31-.92-.46-.25-1.04-.37-1.72-.37-.79,0-1.43.23-1.9.68s-.81,1-.99,1.63c-.19.63-.28,1.24-.28,1.83,0,.7.11,1.34.32,1.93.21.59.54,1.06.97,1.41s.96.53,1.57.53c.35,0,.72-.07,1.12-.21v-1.62h-1.24v-2.78h3.64v6.63Z"/>
      <path class="cls-1" d="M228.34,149.07c0,1.41-.17,2.55-.51,3.41s-.74,1.55-1.2,2.08c-.65.78-1.57,1.17-2.74,1.17h-4.92v-13.81h3.79c.57,0,1.06.05,1.46.13.41.09.77.22,1.1.38.32.16.6.35.83.55.23.2.43.42.61.65.31.38.58.84.82,1.36s.42,1.13.56,1.82.21,1.44.21,2.25ZM225.54,148.9c0-1.12-.14-2-.42-2.62-.28-.63-.62-1.05-1.02-1.26-.4-.21-.8-.32-1.21-.32h-1.17v8.18h1.17c.72,0,1.34-.26,1.87-.78.53-.52.79-1.58.79-3.2Z"/>
      <path class="cls-1" d="M236.91,155.73h-6.88v-13.81h6.76v2.77h-4.01v2.53h3.83v2.78h-3.83v2.95h4.13v2.78Z"/>
      <path class="cls-1" d="M247.08,151.81c0,1.19-.27,2.14-.81,2.85-.54.71-1.29,1.07-2.25,1.07h-5.27v-13.81h4.41c.57,0,1.07.08,1.49.25.42.17.76.39,1.02.68.26.29.45.63.58,1.02.13.39.19.82.19,1.29,0,.5-.07.97-.2,1.4-.13.43-.3.78-.49,1.06-.2.28-.39.47-.59.58.62.37,1.1.84,1.42,1.41s.49,1.3.49,2.21ZM243.87,145.9c0-.66-.15-1.11-.43-1.33-.29-.22-.74-.33-1.36-.33h-.58v3.31h.59c.63,0,1.08-.11,1.36-.33.28-.22.42-.66.42-1.33ZM244.32,151.64c0-1.18-.57-1.77-1.7-1.77h-1.12v3.54h1.12c1.13,0,1.7-.59,1.7-1.76Z"/>
      <path class="cls-1" d="M258.16,149.54c0,1.18-.15,2.19-.44,3.02-.29.83-.68,1.49-1.16,1.98-.48.48-1,.83-1.55,1.05-.56.21-1.11.32-1.66.32-.77,0-1.52-.2-2.25-.6s-1.34-1.08-1.83-2.03c-.49-.96-.74-2.2-.74-3.74v-7.62h2.74v6.55c0,.91.09,1.66.26,2.26.17.59.41,1.03.72,1.31s.67.41,1.1.41.76-.14,1.07-.41c.31-.27.55-.7.73-1.3.17-.59.26-1.34.26-2.25v-6.57h2.75v7.62Z"/>
      <path class="cls-1" d="M269.14,155.73h-2.95l-.72-2.45c-.26-.9-.5-1.55-.71-1.97-.21-.42-.42-.68-.62-.8-.2-.12-.46-.17-.77-.17h-.31v5.39h-2.75v-13.81h4.68c.75,0,1.37.23,1.86.7.48.47.83,1.03,1.04,1.69.21.66.32,1.3.32,1.89,0,.7-.09,1.29-.27,1.77-.18.48-.36.83-.56,1.05-.2.22-.42.43-.66.63.29.26.54.57.73.92s.45,1.07.78,2.16l.92,3ZM265.41,146.28c0-.64-.14-1.08-.41-1.33-.28-.25-.73-.38-1.35-.38h-.58v3.33h.59c.67,0,1.13-.11,1.38-.33s.37-.65.37-1.28Z"/>
      <path class="cls-1" d="M278.99,154.75c-.2.11-.37.21-.51.28-.14.07-.28.14-.4.2-.13.06-.32.14-.56.23-.42.15-.83.26-1.25.33-.41.08-.85.11-1.31.11-.93,0-1.78-.26-2.57-.77-.79-.51-1.41-1.31-1.88-2.38-.47-1.08-.71-2.4-.71-3.96,0-1.01.12-2,.37-2.97.24-.97.62-1.75,1.11-2.34.41-.49.83-.86,1.25-1.11.42-.26.84-.43,1.24-.51.4-.09.85-.13,1.34-.13.8,0,1.47.09,1.99.27.52.18,1.09.42,1.72.72v3.27c-.41-.37-.85-.67-1.31-.92-.46-.25-1.04-.37-1.72-.37-.79,0-1.43.23-1.9.68s-.81,1-.99,1.63c-.19.63-.28,1.24-.28,1.83,0,.7.11,1.34.32,1.93.21.59.54,1.06.97,1.41s.96.53,1.57.53c.35,0,.72-.07,1.12-.21v-1.62h-1.24v-2.78h3.64v6.63Z"/>
      <path class="cls-1" d="M288.03,155.73h-6.88v-13.81h6.76v2.77h-4.01v2.53h3.83v2.78h-3.83v2.95h4.13v2.78Z"/>
      <path class="cls-1" d="M298.71,155.73h-2.95l-.72-2.45c-.26-.9-.5-1.55-.71-1.97-.21-.42-.42-.68-.62-.8-.2-.12-.46-.17-.77-.17h-.31v5.39h-2.75v-13.81h4.68c.75,0,1.37.23,1.86.7.48.47.83,1.03,1.04,1.69.21.66.32,1.3.32,1.89,0,.7-.09,1.29-.27,1.77-.18.48-.36.83-.56,1.05-.2.22-.42.43-.66.63.29.26.54.57.73.92s.45,1.07.78,2.16l.92,3ZM294.97,146.28c0-.64-.14-1.08-.41-1.33-.28-.25-.73-.38-1.35-.38h-.58v3.33h.59c.67,0,1.13-.11,1.38-.33s.37-.65.37-1.28Z"/>
      <path class="cls-1" d="M314.19,149.07c0,1.41-.17,2.55-.51,3.41s-.74,1.55-1.2,2.08c-.65.78-1.57,1.17-2.74,1.17h-4.92v-13.81h3.79c.57,0,1.06.05,1.46.13.41.09.77.22,1.1.38.32.16.6.35.83.55.23.2.43.42.61.65.31.38.58.84.82,1.36s.42,1.13.56,1.82.21,1.44.21,2.25ZM311.4,148.9c0-1.12-.14-2-.42-2.62-.28-.63-.62-1.05-1.02-1.26-.4-.21-.8-.32-1.21-.32h-1.17v8.18h1.17c.72,0,1.34-.26,1.87-.78.53-.52.79-1.58.79-3.2Z"/>
      <path class="cls-1" d="M322.77,155.73h-6.88v-13.81h6.76v2.77h-4.01v2.53h3.83v2.78h-3.83v2.95h4.13v2.78Z"/>
      <path class="cls-1" d="M333.53,141.92l-4.11,13.99h-1.82l-4.03-13.99h2.86l2.09,7.97,2.14-7.97h2.87Z"/>
      <path class="cls-1" d="M341.66,155.73h-6.88v-13.81h6.76v2.77h-4.01v2.53h3.83v2.78h-3.83v2.95h4.13v2.78Z"/>
      <path class="cls-1" d="M350.43,155.73h-6.93v-13.81h2.75v10.5h4.18v3.31Z"/>
      <path class="cls-1" d="M361.01,148.82c0,1.29-.2,2.47-.59,3.56-.39,1.08-.98,1.94-1.75,2.58-.78.64-1.72.96-2.84.96s-2.08-.33-2.86-1-1.36-1.54-1.74-2.62c-.38-1.08-.57-2.24-.57-3.48s.19-2.4.57-3.48c.38-1.08.96-1.95,1.74-2.61.78-.66,1.74-.99,2.87-.99.84,0,1.59.19,2.25.57s1.2.89,1.63,1.54.75,1.4.97,2.26c.22.86.33,1.77.33,2.71ZM358.21,148.82c0-.52-.05-.99-.15-1.42-.1-.43-.25-.8-.46-1.12-.2-.32-.45-.56-.75-.74-.29-.18-.63-.26-1.02-.26-.74,0-1.32.33-1.74.98s-.63,1.5-.63,2.56.21,1.91.64,2.57c.42.65,1,.98,1.73.98.5,0,.93-.15,1.29-.45s.62-.72.81-1.26c.18-.53.28-1.15.28-1.84Z"/>
      <path class="cls-1" d="M370.62,146.26c0,.51-.06,1.01-.17,1.5-.12.49-.3.94-.56,1.36-.26.42-.61.76-1.05,1.03-.44.26-.96.39-1.56.39h-1.8v5.18h-2.75v-13.81h4.55c.6,0,1.11.13,1.56.4.44.27.79.61,1.05,1.04.26.43.45.89.56,1.38s.17,1.01.17,1.52ZM367.82,146.28c0-.66-.13-1.11-.38-1.35-.26-.24-.72-.36-1.38-.36h-.58v3.33h.59c.46,0,.81-.04,1.05-.13.25-.09.42-.25.53-.48.11-.23.16-.57.16-1.01Z"/>
      <path class="cls-1" d="M379.02,155.73h-6.88v-13.81h6.76v2.77h-4.01v2.53h3.83v2.78h-3.83v2.95h4.13v2.78Z"/>
      <path class="cls-1" d="M389.7,155.73h-2.95l-.72-2.45c-.26-.9-.5-1.55-.71-1.97-.21-.42-.42-.68-.62-.8-.2-.12-.46-.17-.77-.17h-.31v5.39h-2.75v-13.81h4.68c.75,0,1.37.23,1.86.7.48.47.83,1.03,1.04,1.69.21.66.32,1.3.32,1.89,0,.7-.09,1.29-.27,1.77-.18.48-.36.83-.56,1.05-.2.22-.42.43-.66.63.29.26.54.57.73.92s.45,1.07.78,2.16l.92,3ZM385.96,146.28c0-.64-.14-1.08-.41-1.33-.28-.25-.73-.38-1.35-.38h-.58v3.33h.59c.67,0,1.13-.11,1.38-.33s.37-.65.37-1.28Z"/>
      <path class="cls-1" d="M405.18,149.07c0,1.41-.17,2.55-.51,3.41s-.74,1.55-1.2,2.08c-.65.78-1.57,1.17-2.74,1.17h-4.92v-13.81h3.79c.57,0,1.06.05,1.46.13.41.09.77.22,1.1.38.32.16.6.35.83.55.23.2.43.42.61.65.31.38.58.84.82,1.36s.42,1.13.56,1.82.21,1.44.21,2.25ZM402.39,148.9c0-1.12-.14-2-.42-2.62-.28-.63-.62-1.05-1.02-1.26-.4-.21-.8-.32-1.21-.32h-1.17v8.18h1.17c.72,0,1.34-.26,1.87-.78.53-.52.79-1.58.79-3.2Z"/>
      <path class="cls-1" d="M416.31,155.73h-2.82l-.74-2.8h-3.96l-.76,2.8h-2.82l4.03-13.81h3.04l4.02,13.81ZM412.12,150.53l-1.34-5.04-1.35,5.04h2.68Z"/>
      <path class="cls-1" d="M425.07,141.92l-3.57,7.48v6.33h-2.75v-6.25l-3.64-7.56h2.86l2.09,4.34,2.1-4.34h2.91Z"/>
      <path class="cls-1" d="M432.28,151.71c0,.86-.15,1.61-.44,2.24s-.7,1.11-1.22,1.45c-.52.34-1.12.5-1.8.5-.19,0-.42-.02-.69-.05-.27-.04-.64-.14-1.09-.3-.45-.17-.93-.41-1.42-.74v-3.39c.46.43.91.79,1.36,1.08.45.29.92.43,1.43.43.47,0,.77-.12.91-.35.14-.24.21-.46.21-.66,0-.37-.12-.69-.36-.94-.24-.26-.58-.52-1.03-.79-.5-.32-.94-.67-1.32-1.04-.38-.38-.69-.85-.92-1.41-.24-.56-.36-1.23-.36-2s.12-1.42.36-2.02.61-1.08,1.11-1.44c.5-.36,1.1-.54,1.82-.54.51,0,.98.07,1.41.22.43.15.79.32,1.07.5.28.19.47.33.58.44v3.24c-.37-.4-.79-.77-1.25-1.09s-.95-.48-1.47-.48c-.34,0-.59.1-.74.3s-.23.44-.23.74c0,.27.08.51.23.71s.43.44.82.73c.7.5,1.26.95,1.68,1.34s.75.86.99,1.38c.24.52.36,1.17.36,1.95Z"/>
    </g>
  </g>
</svg>